<svg xmlns="http://www.w3.org/2000/svg" viewBox="0 0 92.86 87.98"><defs><style>.cls-1{fill:#317a2a;}</style></defs><g id="Layer_2" data-name="Layer 2"><g id="Layer_1-2" data-name="Layer 1"><path class="cls-1" d="M24.31,26.5c1.32,0,2.54,0,3.71.07a17.45,17.45,0,0,1,.56-7.46.76.76,0,0,0-.44-.86c-6.34-2.45-11.1-.1-16.92,1.52A.7.7,0,0,0,10.9,21c1.67,1.56,4.18,3.61,6.64,5.6a.76.76,0,0,0,.48.15C20.12,26.59,22.24,26.5,24.31,26.5Z"/><path   class="cls-1" d="M33.68,25.43a1.89,1.89,0,0,0,1.59,1.74c.88.12,1.71.26,2.58.41,2.25-7.92,8-13.7,15.24-17.34C50.92,6.63,48.15.83,43.72,0a.89.89,0,0,0-.92.45C39.89,5.49,33.25,18.13,33.68,25.43Z"/><path class="cls-1" d="M16.39,49.16a61.76,61.76,0,0,0,18.37-5.49,83.1,83.1,0,0,1,1.52-10.5,69.39,69.39,0,0,0-11.72-.9h0c-6.46-.93-28,3.28-24.09,7.09C5.71,42.77,10.83,45.08,16.39,49.16Z"/><path class="cls-1" d="M44.26,26.9c-.32.75-.6,1.51-.86,2.27h0a45.17,45.17,0,0,0-1.57,5.66h0c-.28,1.18-.76,4.05-.79,4.53C50.83,37,59.32,28.83,68.35,22.73h.11c.64-3.77,3.44-9.62.86-12.86a.74.74,0,0,0-.83-.22C60.34,12.5,47.8,17.57,44.26,26.9Z"/><path   class="cls-1" d="M72.49,28.66a16.07,16.07,0,0,0-2.21-.17c-16,11.7-32.5,23-52,26.23-6.34,7.54-1.59,31,.46,33.26H92.86V49.66a15.2,15.2,0,0,0-3.26-9.4C86.09,35.83,80,29.71,72.49,28.66Z"/></g></g></svg>