<?xml version="1.0" encoding="UTF-8" standalone="no"?>
<!DOCTYPE svg PUBLIC "-//W3C//DTD SVG 20010904//EN"
              "http://www.w3.org/TR/2001/REC-SVG-20010904/DTD/svg10.dtd">

<svg xmlns="http://www.w3.org/2000/svg"
     width="4.80495in" height="7.11022in"
     viewBox="0 0 346 512">
  <path id="Selection"
        fill="#858a5e" stroke="#858a5e" stroke-width="1"
        d="M 152.83,439.38
           C 152.83,439.38 137.29,434.66 137.29,434.66
             137.29,434.66 128.83,431.38 128.83,431.38
             111.95,425.85 92.67,420.34 78.01,409.92
             78.01,409.92 64.26,398.81 64.26,398.81
             64.26,398.81 59.59,395.35 59.59,395.35
             59.59,395.35 46.64,379.42 46.64,379.42
             27.12,353.16 16.06,323.88 16.00,291.00
             15.98,281.05 14.03,282.92 14.03,277.00
             14.03,271.08 15.98,272.95 16.00,263.00
             16.01,257.51 16.31,247.39 17.24,242.17
             17.24,242.17 18.96,235.96 18.96,235.96
             18.96,235.96 20.42,226.29 20.42,226.29
             20.42,226.29 23.57,217.83 23.57,217.83
             23.57,217.83 25.07,211.17 25.07,211.17
             25.07,211.17 31.81,193.84 31.81,193.84
             31.81,193.84 33.68,188.46 33.68,188.46
             33.68,188.46 36.70,182.84 36.70,182.84
             36.70,182.84 41.68,170.46 41.68,170.46
             46.56,159.30 62.78,131.39 70.25,121.67
             70.25,121.67 79.06,109.01 79.06,109.01
             79.06,109.01 89.73,96.18 89.73,96.18
             89.73,96.18 93.03,91.33 93.03,91.33
             93.03,91.33 100.88,83.50 100.88,83.50
             100.88,83.50 104.79,77.90 104.79,77.90
             104.79,77.90 113.24,69.26 113.24,69.26
             113.24,69.26 117.23,63.66 117.23,63.66
             117.23,63.66 126.69,54.42 126.69,54.42
             126.69,54.42 130.79,48.90 130.79,48.90
             130.79,48.90 142.15,37.37 142.15,37.37
             147.46,31.99 161.19,16.82 167.43,14.70
             169.87,13.87 175.32,13.81 177.91,14.11
             187.11,15.20 198.25,28.82 204.66,35.08
             204.66,35.08 217.66,48.08 217.66,48.08
             217.66,48.08 225.59,55.86 225.59,55.86
             225.59,55.86 229.00,60.55 229.00,60.55
             229.00,60.55 233.83,65.74 233.83,65.74
             233.83,65.74 251.55,88.88 251.55,88.88
             251.55,88.88 262.29,104.88 262.29,104.88
             262.29,104.88 266.40,110.12 266.40,110.12
             266.40,110.12 279.58,131.08 279.58,131.08
             279.58,131.08 283.40,138.81 283.40,138.81
             283.40,138.81 286.63,143.37 286.63,143.37
             286.63,143.37 296.15,162.87 296.15,162.87
             296.15,162.87 304.86,179.29 304.86,179.29
             304.86,179.29 309.74,191.70 309.74,191.70
             309.74,191.70 320.33,212.42 320.33,212.42
             320.33,212.42 322.38,219.83 322.38,219.83
             322.38,219.83 325.61,228.29 325.61,228.29
             325.61,228.29 327.25,237.91 327.25,237.91
             327.25,237.91 328.76,243.17 328.76,243.17
             330.18,251.00 329.87,259.08 330.00,267.00
             330.12,273.69 331.77,273.88 331.77,277.00
             331.77,280.19 330.05,280.12 330.00,288.00
             330.00,288.00 330.00,294.00 330.00,294.00
             329.96,301.32 327.69,315.71 325.61,322.71
             325.61,322.71 322.38,331.17 322.38,331.17
             322.38,331.17 317.32,346.54 317.32,346.54
             317.32,346.54 314.18,352.16 314.18,352.16
             303.46,374.95 286.58,395.64 266.34,410.69
             261.29,414.45 247.60,422.35 241.72,424.85
             241.72,424.85 235.44,427.06 235.44,427.06
             221.86,432.91 202.79,438.96 188.00,439.00
             188.00,439.00 188.00,484.00 188.00,484.00
             187.98,488.37 187.47,492.83 184.03,496.02
             181.26,498.59 176.58,498.05 173.00,498.00
             165.28,497.88 163.11,494.43 163.00,487.00
             163.00,487.00 163.00,443.00 163.00,443.00
             163.00,443.00 152.83,439.38 152.83,439.38 Z
           M 146.17,65.74
           C 146.17,65.74 142.24,71.34 142.24,71.34
             142.24,71.34 131.45,82.15 131.45,82.15
             131.45,82.15 127.35,87.67 127.35,87.67
             127.35,87.67 115.00,100.00 115.00,100.00
             115.00,100.00 115.00,102.00 115.00,102.00
             115.00,102.00 138.50,117.19 138.50,117.19
             138.50,117.19 163.00,134.00 163.00,134.00
             163.00,134.00 163.00,50.00 163.00,50.00
             163.00,50.00 146.17,65.74 146.17,65.74 Z
           M 188.00,72.00
           C 188.00,72.00 188.00,111.00 188.00,111.00
             188.00,111.00 189.00,133.00 189.00,133.00
             192.10,129.02 198.38,125.66 202.75,122.90
             202.75,122.90 218.45,111.98 218.45,111.98
             221.35,110.06 227.78,107.41 229.16,104.53
             231.37,99.93 222.56,93.30 219.58,90.29
             215.26,85.93 216.15,85.88 213.36,82.58
             213.36,82.58 203.19,70.55 203.19,70.55
             203.19,70.55 196.34,61.23 196.34,61.23
             196.34,61.23 189.00,53.00 189.00,53.00
             189.00,53.00 188.00,72.00 188.00,72.00 Z
           M 163.00,173.00
           C 162.99,169.71 163.23,165.38 161.34,162.54
             159.88,160.35 151.76,155.63 149.09,153.91
             149.09,153.91 129.45,140.02 129.45,140.02
             129.45,140.02 118.12,132.83 118.12,132.83
             118.12,132.83 108.80,126.21 108.80,126.21
             106.23,124.65 103.37,122.47 100.22,123.76
             98.06,124.64 96.63,127.42 95.27,129.26
             95.27,129.26 83.82,147.86 83.82,147.86
             83.82,147.86 79.56,154.09 79.56,154.09
             79.56,154.09 74.82,162.49 74.82,162.49
             72.66,165.73 68.63,171.78 69.30,175.87
             69.83,179.13 72.35,180.09 74.67,181.83
             74.67,181.83 90.23,193.07 90.23,193.07
             90.23,193.07 103.19,201.39 103.19,201.39
             103.19,201.39 141.92,227.94 141.92,227.94
             148.39,231.93 156.45,238.85 163.00,241.00
             163.00,241.00 163.00,173.00 163.00,173.00 Z
           M 243.51,124.81
           C 243.51,124.81 221.11,138.97 221.11,138.97
             221.11,138.97 202.11,151.95 202.11,151.95
             198.40,154.18 194.61,154.60 191.96,158.29
             186.76,165.52 188.00,171.60 188.00,180.00
             188.00,180.00 188.00,220.00 188.00,220.00
             188.00,225.15 187.26,235.62 189.00,240.00
             189.00,240.00 214.34,223.06 214.34,223.06
             214.34,223.06 225.12,215.29 225.12,215.29
             225.12,215.29 251.67,197.74 251.67,197.74
             251.67,197.74 256.93,193.63 256.93,193.63
             256.93,193.63 273.74,182.73 273.74,182.73
             275.68,181.28 278.79,179.89 278.61,177.08
             278.50,175.27 271.97,166.06 270.56,163.74
             270.56,163.74 265.38,154.51 265.38,154.51
             265.38,154.51 253.30,135.14 253.30,135.14
             250.33,129.63 249.19,131.21 248.00,124.00
             246.26,124.12 245.18,124.04 243.51,124.81 Z
           M 163.00,283.00
           C 162.99,279.62 163.11,275.45 161.69,272.32
             158.83,266.04 147.22,260.44 141.86,256.00
             141.86,256.00 124.28,244.38 124.28,244.38
             124.28,244.38 105.12,231.83 105.12,231.83
             105.12,231.83 99.88,227.74 99.88,227.74
             99.88,227.74 81.20,216.23 81.20,216.23
             81.20,216.23 63.67,204.49 63.67,204.49
             59.52,201.63 58.94,199.78 54.00,198.00
             54.00,198.00 49.57,217.83 49.57,217.83
             49.57,217.83 46.41,226.29 46.41,226.29
             46.41,226.29 44.28,236.71 44.28,236.71
             44.28,236.71 38.47,257.75 38.47,257.75
             38.47,257.75 42.50,267.02 42.50,267.02
             42.50,267.02 60.88,280.29 60.88,280.29
             60.88,280.29 65.37,283.75 65.37,283.75
             65.37,283.75 72.24,287.26 72.24,287.26
             72.24,287.26 79.12,292.40 79.12,292.40
             79.12,292.40 99.88,306.29 99.88,306.29
             99.88,306.29 105.12,310.40 105.12,310.40
             105.12,310.40 131.60,327.77 131.60,327.77
             131.60,327.77 139.67,332.83 139.67,332.83
             139.67,332.83 153.86,342.60 153.86,342.60
             153.86,342.60 163.00,350.00 163.00,350.00
             163.00,350.00 163.00,283.00 163.00,283.00 Z
           M 263.88,218.71
           C 263.88,218.71 230.12,240.60 230.12,240.60
             230.12,240.60 224.88,244.71 224.88,244.71
             224.88,244.71 207.26,256.27 207.26,256.27
             207.26,256.27 195.75,263.16 195.75,263.16
             189.29,267.96 188.01,274.49 188.00,282.00
             188.00,282.00 188.00,347.00 188.00,347.00
             193.54,345.43 194.79,343.25 199.12,340.29
             199.12,340.29 218.28,327.36 218.28,327.36
             218.28,327.36 225.67,322.74 225.67,322.74
             225.67,322.74 263.88,297.26 263.88,297.26
             263.88,297.26 276.09,288.09 276.09,288.09
             276.09,288.09 295.12,275.17 295.12,275.17
             298.95,272.35 304.12,268.74 305.46,263.91
             308.05,254.56 304.43,247.07 301.73,238.71
             301.73,238.71 299.33,227.43 299.33,227.43
             299.33,227.43 290.00,202.00 290.00,202.00
             284.02,203.66 269.66,214.75 263.88,218.71 Z
           M 44.91,324.09
           C 44.91,324.09 46.68,330.54 46.68,330.54
             46.68,330.54 49.61,336.17 49.61,336.17
             55.06,350.28 59.57,356.29 69.19,367.74
             69.19,367.74 74.44,374.71 74.44,374.71
             80.24,380.81 79.56,379.09 84.35,382.97
             84.35,382.97 93.42,390.45 93.42,390.45
             113.89,404.69 138.08,413.00 163.00,413.00
             163.00,413.00 163.00,392.00 163.00,392.00
             162.99,388.71 163.02,383.32 161.53,380.37
             157.88,373.15 141.75,364.87 135.00,359.67
             135.00,359.67 100.12,335.71 100.12,335.71
             100.12,335.71 89.50,327.60 89.50,327.60
             89.50,327.60 80.45,322.02 80.45,322.02
             80.45,322.02 69.67,314.26 69.67,314.26
             69.67,314.26 41.00,295.00 41.00,295.00
             37.80,303.06 42.58,316.06 44.91,324.09 Z
           M 303.00,298.00
           C 303.00,298.00 265.26,324.07 265.26,324.07
             265.26,324.07 250.50,334.84 250.50,334.84
             250.50,334.84 234.28,345.07 234.28,345.07
             234.28,345.07 218.72,356.38 218.72,356.38
             218.72,356.38 199.67,369.17 199.67,369.17
             190.29,376.10 188.02,375.57 188.00,389.00
             188.00,389.00 188.00,413.00 188.00,413.00
             209.50,413.00 227.23,406.24 245.20,394.77
             245.20,394.77 253.34,389.68 253.34,389.68
             253.34,389.68 257.58,385.45 257.58,385.45
             257.58,385.45 269.55,374.87 269.55,374.87
             275.06,368.86 279.54,362.25 283.98,355.45
             283.98,355.45 291.38,343.54 291.38,343.54
             291.38,343.54 296.69,330.28 296.69,330.28
             296.69,330.28 304.88,305.83 304.88,305.83
             304.88,305.83 304.88,298.00 304.88,298.00
             304.88,298.00 303.00,298.00 303.00,298.00 Z" />
</svg>
